<svg viewBox="0 0 200 200" xmlns="http://www.w3.org/2000/svg">
  <defs>
    <style>
      .trail-path { fill: #147E7E; }
      .checkmark-circle { fill: #FFFFFF; }
      .checkmark { stroke: #147E7E; stroke-width: 8; stroke-linecap: round; stroke-linejoin: round; fill: none; }
    </style>
  </defs>
  
  <!-- Main Trail Path -->
  <path class="trail-path" d="M100 40 C120 40, 140 60, 140 80 C140 100, 120 120, 100 120 C80 120, 60 140, 60 160 C60 180, 80 200, 100 200 C120 200, 140 180, 140 160 C140 140, 160 120, 180 120 C200 120, 200 140, 180 160 L160 180 C140 200, 120 200, 100 200 C60 200, 20 160, 20 120 C20 80, 40 60, 60 40 C80 20, 100 20, 120 40 Z"/>
  
  <!-- Circular Badge at Top -->
  <circle cx="100" cy="80" r="35" class="trail-path"/>
  <circle cx="100" cy="80" r="25" class="checkmark-circle"/>
  
  <!-- Checkmark -->
  <path class="checkmark" d="M85 80 L95 90 L115 70"/>
</svg>